<svg xmlns="http://www.w3.org/2000/svg" width="256" height="256" viewBox="0 0 100 100">
<style>
path { fill: #474747; }
@media (prefers-color-scheme: dark) {
  path { fill: #c7c7c7; }
}
</style>
<path d="M35.61 93.00L35.61 93.00L37.10 86.06Q34.90 86.15 33.52 84.94Q32.14 83.73 31.35 81.75L31.35 81.75Q30.55 79.77 30.27 77.33Q29.98 74.90 29.98 72.52L29.98 72.52L29.98 65.36Q29.98 60.13 27.43 56.13Q24.89 52.13 19.44 50.02L19.44 50.02Q24.84 47.91 27.41 43.87Q29.98 39.83 29.98 34.60L29.98 34.60L29.98 27.43Q29.98 25.06 30.09 22.62Q30.20 20.18 30.86 18.21L30.86 18.21Q31.52 16.23 32.97 15.02Q34.42 13.81 37.10 13.90L37.10 13.90L35.61 7.00Q31.35 7.00 28.27 8.63Q25.19 10.25 23.30 12.80L23.30 12.80Q21.02 15.74 19.96 19.72Q18.91 23.70 18.91 27.43L18.91 27.43L18.91 34.60Q18.91 40.53 16.18 43.08Q13.46 45.63 7.88 45.63L7.88 45.63L7.88 54.42Q13.46 54.42 16.18 56.97Q18.91 59.51 18.91 65.36L18.91 65.36L18.91 72.52Q18.91 75.99 19.85 79.62Q20.80 83.24 22.91 86.28L22.91 86.28Q24.89 89.18 28.07 91.09Q31.26 93.00 35.61 93.00ZM62.90 86.06L62.90 86.06L64.39 93.00Q68.74 93.00 71.93 91.13Q75.11 89.27 77.09 86.23L77.09 86.23Q79.07 83.33 80.08 79.64Q81.09 75.95 81.09 72.52L81.09 72.52L81.09 65.36Q81.09 63.29 81.42 61.65Q81.75 60.00 82.41 58.77L82.41 58.77Q83.64 56.48 86.06 55.45Q88.47 54.42 92.12 54.42L92.12 54.42L92.12 45.63Q88.87 45.63 86.56 44.79Q84.26 43.96 82.98 42.16L82.98 42.16Q82.01 40.84 81.55 38.95Q81.09 37.06 81.09 34.60L81.09 34.60L81.09 27.43Q81.09 24.09 80.28 20.51Q79.47 16.93 77.53 14.03L77.53 14.03Q75.51 10.82 72.30 8.91Q69.09 7.00 64.39 7.00L64.39 7.00L62.90 13.90Q65.58 13.81 67.03 15.02Q68.48 16.23 69.14 18.21L69.14 18.21Q69.80 20.18 69.91 22.62Q70.02 25.06 70.02 27.43L70.02 27.43L70.02 34.60Q70.02 37.63 70.85 40.33Q71.69 43.03 73.44 45.23L73.44 45.23Q74.63 46.73 76.26 47.96Q77.88 49.19 79.99 50.07L79.99 50.07Q77.40 51.16 75.53 52.72Q73.66 54.28 72.43 56.26L72.43 56.26Q71.20 58.24 70.61 60.52Q70.02 62.81 70.02 65.36L70.02 65.36L70.02 72.52Q70.02 74.90 69.71 77.33Q69.40 79.77 68.61 81.75L68.61 81.75Q67.82 83.73 66.44 84.94Q65.05 86.15 62.90 86.06Z"></path>
</svg>
