<svg xmlns="http://www.w3.org/2000/svg" width="256" height="256" viewBox="0 0 100 100">
<style>
path { fill: #474747; }
@media (prefers-color-scheme: dark) {
  path { fill: #c7c7c7; }
}
</style>
<path d="M8.63 38.22L25.85 42.44L13.64 56.81L21.50 62.22L30.77 46.35L40.05 62.70L47.87 57.03L36.09 42.84L53.58 38.84L50.68 29.65L34.33 36.82L36.05 17.57L26.42 17.57L28.01 36.51L11.53 29.21L8.63 38.22ZM74.41 74.48L74.41 74.48Q74.41 77.86 76.70 80.15Q78.98 82.43 82.89 82.43L82.89 82.43Q86.76 82.43 89.07 80.17Q91.37 77.91 91.37 74.48L91.37 74.48Q91.37 71.05 89.11 68.72Q86.85 66.39 82.89 66.39L82.89 66.39Q78.89 66.39 76.65 68.74Q74.41 71.09 74.41 74.48Z"></path>
</svg>
