<svg xmlns="http://www.w3.org/2000/svg" width="256" height="256" viewBox="0 0 100 100">
<style>
path { fill: #fff; }
rect { fill: #474747; }
@media (prefers-color-scheme: dark) {
  path { fill: #3c3c3c; }
  rect { fill: #c7c7c7; }
}
</style>
<rect width="100" height="100" rx="50"></rect>
<path d="M56.50 35.56L30.62 35.56L30.62 45.54L44.16 45.54L44.16 73.18L30.62 73.18L30.62 83.11L69.38 83.11L69.38 73.18L56.50 73.18L56.50 35.56ZM43.28 23.39L43.28 23.39Q43.28 24.80 43.78 26.01Q44.29 27.21 45.21 28.05L45.21 28.05Q46.13 28.93 47.43 29.41Q48.73 29.90 50.31 29.90L50.31 29.90Q53.56 29.90 55.47 28.07Q57.38 26.25 57.38 23.39L57.38 23.39Q57.38 20.53 55.47 18.71Q53.56 16.89 50.31 16.89L50.31 16.89Q48.73 16.89 47.43 17.37Q46.13 17.85 45.21 18.69L45.21 18.69Q44.29 19.57 43.78 20.78Q43.28 21.98 43.28 23.39Z"></path>
</svg>
